<?xml version="1.0" encoding="UTF-8"?>
<svg width="65px" height="61px" viewBox="0 0 65 61" version="1.1" xmlns="http://www.w3.org/2000/svg" xmlns:xlink="http://www.w3.org/1999/xlink">
    <title>Group</title>
    <g id="Home-catppuccin" stroke="none" stroke-width="1" fill="none" fill-rule="evenodd">
        <g id="Galaxy-A50" transform="translate(-899.000000, -1267.000000)" fill-rule="nonzero">
            <g id="Group" transform="translate(899.000000, 1267.000000)">
                <path d="M18,25.8 C18,20.9398942 22.2085234,17 27.4,17 L55.6,17 C60.7914766,17 65,20.9398942 65,25.8 L65,52.2 C65,57.0601058 60.7914766,61 55.6,61 L27.4,61 C22.2085234,61 18,57.0601058 18,52.2 L18,25.8 Z" id="Path" fill="#C9CBFF"></path>
                <path d="M9.4,0 C4.20852335,0 0,3.9398942 0,8.8 L0,35.2 C0,40.0601058 4.20852335,44 9.4,44 L9.4,8.8 L47,8.8 C47,3.9398942 42.7914766,0 37.6,0 L9.4,0 Z" id="Path" fill="#F5E0DC"></path>
            </g>
        </g>
    </g>
</svg>